<?xml version="1.0" standalone="no"?>
<!DOCTYPE svg PUBLIC "-//W3C//DTD SVG 20010904//EN"
 "http://www.w3.org/TR/2001/REC-SVG-20010904/DTD/svg10.dtd">
<svg version="1.0" xmlns="http://www.w3.org/2000/svg"
 width="2000.000000pt" height="2000.000000pt" viewBox="0 0 2000.000000 2000.000000"
 preserveAspectRatio="xMidYMid meet">
<metadata>
Created by potrace 1.14, written by Peter Selinger 2001-2017
</metadata>
<g transform="translate(0.000000,2000.000000) scale(0.100000,-0.100000)"
fill="#000000" stroke="none">
<path d="M0 10000 l0 -10000 10000 0 10000 0 0 10000 0 10000 -10000 0 -10000
0 0 -10000z m10480 7809 c1660 -92 3284 -741 4565 -1824 1563 -1322 2542
-3168 2750 -5185 53 -516 53 -1096 0 -1610 -137 -1323 -606 -2583 -1367 -3672
-61 -87 -114 -160 -118 -163 -3 -2 -587 578 -1297 1288 l-1290 1292 8 115 c12
161 54 402 95 544 82 285 180 473 332 639 110 121 176 382 189 755 l6 182 26
8 c36 10 196 9 250 -2 l44 -8 -6 103 c-9 159 -75 366 -190 595 -44 87 -45 91
-22 86 13 -2 40 1 60 8 39 13 139 105 149 138 4 13 -5 36 -27 69 -34 50 -76
169 -97 273 -36 178 -62 661 -46 853 l8 87 41 0 c82 1 160 53 226 150 l40 60
-35 58 c-121 201 -217 820 -289 1870 -31 455 -16 566 116 835 38 77 49 111 49
148 0 52 -13 95 -37 121 -14 16 -19 13 -76 -31 -123 -97 -231 -132 -273 -90
-15 16 -15 24 6 110 12 52 25 135 27 185 6 103 -3 129 -65 190 -43 42 -164
124 -184 124 -34 0 -540 -564 -758 -845 -205 -265 -273 -382 -470 -810 -205
-445 -431 -863 -541 -1002 l-51 -63 35 -15 c64 -26 170 -38 247 -26 116 18
207 62 300 144 53 46 58 39 36 -57 -39 -167 -156 -347 -361 -551 -185 -186
-411 -356 -700 -527 -230 -136 -1301 -705 -1525 -810 l-104 -49 -2398 2398
-2398 2398 27 20 c489 365 1121 715 1720 954 1074 428 2185 606 3373 540z
m-4641 -4973 c1887 -1887 1982 -1984 1955 -1990 -16 -3 -114 -19 -219 -36
-777 -124 -1298 -290 -1645 -521 -489 -326 -842 -1145 -959 -2224 -34 -313
-43 -472 -46 -855 -3 -424 -12 -493 -83 -622 -84 -154 -79 -304 15 -408 51
-57 104 -75 194 -67 59 5 162 47 235 96 l30 21 -18 -71 c-48 -192 -68 -451
-77 -1024 -9 -522 -5 -488 -88 -720 l-29 -80 -97 -3 -96 -3 -3 -136 -3 -136
-100 89 c-142 125 -456 436 -592 586 -1086 1199 -1772 2681 -1972 4263 -71
562 -81 1224 -26 1780 127 1275 568 2503 1280 3565 125 187 340 480 352 480 5
0 901 -893 1992 -1984z m4802 -4802 l1127 -1127 -20 -66 c-51 -175 -139 -542
-162 -681 -49 -290 -55 -588 -19 -956 l5 -60 -138 -71 c-162 -83 -363 -161
-593 -232 -91 -28 -168 -51 -172 -51 -3 0 -4 20 -2 44 12 106 -30 175 -126
202 -149 43 -336 176 -638 453 -378 345 -694 845 -769 1214 -23 110 -14 222
31 417 95 408 121 587 111 760 -8 139 -30 214 -119 400 -96 199 -162 364 -242
602 -36 105 -65 192 -65 193 0 1 56 5 125 8 127 7 349 36 460 61 33 8 64 14
70 15 5 1 517 -506 1136 -1125z m-4416 -399 c25 -121 30 -330 11 -447 -19
-117 -62 -237 -117 -332 -52 -88 -258 -296 -342 -345 -53 -31 -162 -69 -243
-84 l-31 -6 54 82 c100 148 201 375 237 530 9 37 23 97 32 135 17 72 76 206
126 287 89 141 228 290 249 268 4 -5 15 -44 24 -88z m1601 -308 c179 -191 343
-438 397 -598 9 -25 21 -83 27 -128 17 -127 46 -228 91 -319 42 -87 80 -129
337 -375 201 -192 719 -824 748 -912 9 -27 30 -76 45 -107 16 -31 25 -59 21
-62 -7 -4 -996 -206 -1010 -206 -4 0 -7 57 -7 128 0 70 -3 134 -7 143 -5 14
-36 4 -215 -68 -277 -112 -772 -302 -903 -347 -246 -83 -585 -125 -1200 -146
-416 -14 -377 -17 -384 28 -13 74 -37 130 -74 173 l-37 43 2 256 c2 305 11
352 103 535 130 261 333 492 674 768 288 233 708 626 1106 1035 118 121 218
221 221 222 4 0 33 -28 65 -63z m5038 -1582 c-29 -288 -97 -457 -210 -517 -63
-34 -187 -50 -321 -41 -84 5 -96 9 -110 29 -8 13 -37 37 -64 54 l-50 30 6 108
c21 387 77 658 180 863 l37 72 269 -269 269 -269 -6 -60z m1888 -1822 l87 -88
-122 -92 c-1111 -832 -2376 -1346 -3737 -1517 -394 -50 -1039 -71 -1432 -47
-1535 94 -2981 619 -4195 1522 -139 103 -383 298 -383 305 0 2 2181 4 4848 4
l4847 0 87 -87z"/>
</g>
</svg>
